name rise37.2698peak67.6939fall79.5734.mot
datacolumns 19
datarows 12
range 16.50160900000000 16.51993500000000
endheader
time	ground_force1_vx	ground_force1_vy	ground_force1_vz	ground_force1_px	ground_force1_py	ground_force1_pz	ground_force2_vx	ground_force2_vy	ground_force2_vz	ground_force2_px	ground_force2_py	ground_force2_pz	ground_torque1_x	ground_torque1_y	ground_torque1_z	ground_torque2_x	ground_torque2_y	ground_torque2_z	
16.50160900000000	62.88691800000000	748.67613700000004	50.61318800000000	0.35033900000000	0.00000000000000	0.09644800000000	0.00000000000000	0.00000000000000	0.00000000000000	0.00000000000000	0.00000000000000	0.00000000000000	0.00000000000000	22.46183300000000	0.00000000000000	0.00000000000000	0.00000000000000	0.00000000000000	
16.50326800000000	62.37417900000000	751.97559500000000	50.83241500000000	0.34973900000000	0.00000000000000	0.09646400000000	0.00000000000000	0.00000000000000	0.00000000000000	0.00000000000000	0.00000000000000	0.00000000000000	0.00000000000000	22.60835500000000	0.00000000000000	0.00000000000000	0.00000000000000	0.00000000000000	
16.50493600000000	61.86413900000000	755.15366200000005	51.04787500000000	0.34915700000000	0.00000000000000	0.09647900000000	0.00000000000000	0.00000000000000	0.00000000000000	0.00000000000000	0.00000000000000	0.00000000000000	0.00000000000000	22.75372800000000	0.00000000000000	0.00000000000000	0.00000000000000	0.00000000000000	
16.50660200000000	61.35716200000000	758.20804599999997	51.25919600000000	0.34859000000000	0.00000000000000	0.09649500000000	0.00000000000000	0.00000000000000	0.00000000000000	0.00000000000000	0.00000000000000	0.00000000000000	0.00000000000000	22.89762300000000	0.00000000000000	0.00000000000000	0.00000000000000	0.00000000000000	
16.50828300000000	60.85355000000000	761.13658799999996	51.46596500000000	0.34803800000000	0.00000000000000	0.09650900000000	0.00000000000000	0.00000000000000	0.00000000000000	0.00000000000000	0.00000000000000	0.00000000000000	0.00000000000000	23.03968200000000	0.00000000000000	0.00000000000000	0.00000000000000	0.00000000000000	
16.50993600000000	60.35354500000000	763.93726700000002	51.66772700000000	0.34749700000000	0.00000000000000	0.09652400000000	0.00000000000000	0.00000000000000	0.00000000000000	0.00000000000000	0.00000000000000	0.00000000000000	0.00000000000000	23.17952600000000	0.00000000000000	0.00000000000000	0.00000000000000	0.00000000000000	
16.51160900000000	59.85733000000000	766.60821499999997	51.86399600000000	0.34696700000000	0.00000000000000	0.09653900000000	0.00000000000000	0.00000000000000	0.00000000000000	0.00000000000000	0.00000000000000	0.00000000000000	0.00000000000000	23.31675700000000	0.00000000000000	0.00000000000000	0.00000000000000	0.00000000000000	
16.51327300000000	59.36503700000000	769.14773000000002	52.05425900000000	0.34644500000000	0.00000000000000	0.09655300000000	0.00000000000000	0.00000000000000	0.00000000000000	0.00000000000000	0.00000000000000	0.00000000000000	0.00000000000000	23.45095700000000	0.00000000000000	0.00000000000000	0.00000000000000	0.00000000000000	
16.51493600000000	58.87674000000000	771.55428099999995	52.23797900000000	0.34592900000000	0.00000000000000	0.09656800000000	0.00000000000000	0.00000000000000	0.00000000000000	0.00000000000000	0.00000000000000	0.00000000000000	0.00000000000000	23.58169900000000	0.00000000000000	0.00000000000000	0.00000000000000	0.00000000000000	
16.51660400000000	58.39247000000000	773.82652099999996	52.41460100000000	0.34541900000000	0.00000000000000	0.09658300000000	0.00000000000000	0.00000000000000	0.00000000000000	0.00000000000000	0.00000000000000	0.00000000000000	0.00000000000000	23.70854500000000	0.00000000000000	0.00000000000000	0.00000000000000	0.00000000000000	
16.51826900000000	57.91220600000000	775.96329700000001	52.58356000000000	0.34491100000000	0.00000000000000	0.09659800000000	0.00000000000000	0.00000000000000	0.00000000000000	0.00000000000000	0.00000000000000	0.00000000000000	0.00000000000000	23.83104800000000	0.00000000000000	0.00000000000000	0.00000000000000	0.00000000000000	
16.51993500000000	57.43588900000000	777.96365500000002	52.74428400000000	0.34440400000000	0.00000000000000	0.09661300000000	0.00000000000000	0.00000000000000	0.00000000000000	0.00000000000000	0.00000000000000	0.00000000000000	0.00000000000000	23.94876500000000	0.00000000000000	0.00000000000000	0.00000000000000	0.00000000000000	
